<svg xmlns="http://www.w3.org/2000/svg" width="202.224" height="148.605" viewBox="0 0 202.224 148.605">
  <g id="Group_5" data-name="Group 5" transform="translate(-1331.701 -454.24)">
    <g id="Group_2" data-name="Group 2">
      <path id="path0" d="M271.52,63.336C266.68,65,263.968,67,261.479,70.72a17.982,17.982,0,0,0-1.28,18.719c1.567,3.294,6.9,8.481,8.722,8.481.285,0,.519.144.519.32s.352.32.781.32a1.353,1.353,0,0,1,.953.278c.6.963,8.744,1.021,11.226.079,3.933-1.492,10.08-6.282,10.08-7.854,0-.277.109-.5.242-.5s.433-.468.667-1.04.547-1.328.7-1.68a14.886,14.886,0,0,0,1.107-6.72,15.838,15.838,0,0,0-1.822-8.4c-3.326-7.5-14-12.085-21.85-9.384m27.653,40.343a112.8,112.8,0,0,1-10.064,5.16c-.7.285-2.133.838-3.189,1.229s-2.424.907-3.04,1.146-2.128.747-3.36,1.128a29.51,29.51,0,0,0-2.8.975,3.525,3.525,0,0,1-1.341.283,1.354,1.354,0,0,0-.961.285,2.941,2.941,0,0,1-1.379.489c-2.9.494-3.3.592-3.465.861a2.019,2.019,0,0,1-1.258.285,2.021,2.021,0,0,0-1.259.286,2.81,2.81,0,0,1-1.379.46c-.661.1-1.886.326-2.722.513s-2.132.466-2.88.62c-5.191,1.063-6.7,1.363-8.4,1.669-1.056.189-2.568.472-3.36.629a49.752,49.752,0,0,1-7.52,1.069,8.115,8.115,0,0,0-2.6.441,5.587,5.587,0,0,1-2.08.385,22.8,22.8,0,0,0-4.441.436c-.44.1-2.168.276-3.84.39s-4.624.349-6.56.523-7.912.415-13.28.537c-8.333.188-8.93.231-4.08.291a30.1,30.1,0,0,1,5.68.343c0,.83-5.332,6.586-8.324,8.984-1.283,1.029-1.325,1.112-.681,1.35a14.862,14.862,0,0,1,2.394,1.544,11.341,11.341,0,0,0,1.942,1.29,7.675,7.675,0,0,1,1.571.89,25.4,25.4,0,0,0,2.3,1.359,6.33,6.33,0,0,1,1.12.649c.252.281,8.115,4.018,11.2,5.322.616.261,1.37.606,1.676.767a2.709,2.709,0,0,0,1.04.293c.266,0,.484.144.484.32s.29.32.644.32a3.133,3.133,0,0,1,1.2.283c.306.155.952.443,1.436.64l1.76.714c.484.2,1.13.485,1.436.64a3.088,3.088,0,0,0,1.181.283,1.062,1.062,0,0,1,.8.282,1.748,1.748,0,0,0,.9.45c.4.093,2.093.7,3.765,1.341s3.688,1.385,4.48,1.645a25.462,25.462,0,0,1,3.6,1.439,3.088,3.088,0,0,0,1.181.283,1.073,1.073,0,0,1,.823.32,1.3,1.3,0,0,0,.96.32,1.3,1.3,0,0,1,.96.32,1.073,1.073,0,0,0,.823.32,2.868,2.868,0,0,1,1.181.31,15.491,15.491,0,0,0,2,.776c.792.257,3.312,1.141,5.6,1.966s4.486,1.573,4.885,1.662a1.719,1.719,0,0,1,.9.444,1.1,1.1,0,0,0,.823.282c.86,0,.54,4.046-.657,8.32-.173.616-.445,1.624-.6,2.24a30.018,30.018,0,0,1-2.542,5.92,13.687,13.687,0,0,0-.935,1.84c-.1.308-.311.56-.466.56s-.286.18-.289.4c-.01.722-3.249,4.341-6.03,6.74a54.8,54.8,0,0,1-10.924,6.538c-.44.174-1.232.5-1.76.722s-1.248.511-1.6.64-1.036.4-1.52.6a70.487,70.487,0,0,1-6.8,2.371c-2.464.79-5.272,1.624-6.24,1.853a8.71,8.71,0,0,0-2.064.677,2.775,2.775,0,0,1-1.341.262,1.849,1.849,0,0,0-1.235.32,1.605,1.605,0,0,1-1.12.32,1.644,1.644,0,0,0-1.1.286,2.833,2.833,0,0,1-1.379.468c-2.807.424-3.618.613-3.784.881a2.019,2.019,0,0,1-1.258.285,1.952,1.952,0,0,0-1.28.32,1.952,1.952,0,0,1-1.28.32,2.019,2.019,0,0,0-1.258.285,2.357,2.357,0,0,1-1.219.44c-.574.086-1.878.39-2.9.676a14.32,14.32,0,0,1-3.013.519c-.637,0-1.059.1-.939.219.189.188,6.594,1.95,9.259,2.546,1.729.387.442.594-4.836.779-2.934.1,6.545.195,21.065.2s27.912-.113,29.76-.271c7.984-.683,10.882-1.032,13.44-1.616,1.5-.341,3.872-.812,5.28-1.046,2.656-.441,4.64-1.093,4.64-1.525,0-.138.5-.25,1.1-.25a2,2,0,0,0,1.3-.32.874.874,0,0,1,.681-.32,5.533,5.533,0,0,0,1.823-.921,8.109,8.109,0,0,1,1.918-1.04c3.845-.788,12.378-13.265,12.378-18.1a1.2,1.2,0,0,1,.32-.9,2.767,2.767,0,0,0,.32-1.6,2.941,2.941,0,0,1,.281-1.576,5.793,5.793,0,0,0,.5-2.179c.119-1.1.348-3.157.51-4.565.784-6.822,1.1-15.368,1.075-29.28-.029-17.678-.45-41.924-.727-41.91a4.258,4.258,0,0,0-1.024.629m-199.861,8c0,1.5.055,2.108.122,1.36a18.159,18.159,0,0,0,0-2.72c-.067-.748-.122-.136-.122,1.36m79.328,11.109a7,7,0,0,0,1.76,0c.484-.073.088-.133-.88-.133s-1.364.06-.88.133m12.164.641a5.733,5.733,0,0,0,1.6,0c.394-.076,0-.136-.884-.133s-1.2.064-.716.138M98.967,124.8c0,.792.063,1.116.139.72a4.576,4.576,0,0,0,0-1.44c-.076-.4-.139-.072-.139.72M98.7,146.72c0,5.1.045,7.147.1,4.54s.054-6.782,0-9.28-.1-.364-.1,4.74m55.779,64.074a18.161,18.161,0,0,0,2.72,0c.748-.067.136-.122-1.36-.122s-2.108.055-1.36.122m21.6,0c1.188.062,3.132.062,4.32,0s.216-.112-2.16-.112-3.348.051-2.16.112" transform="translate(1233 392)" fill="#a7bf00" fill-rule="evenodd"/>
    </g>
    <g id="Group_3" data-name="Group 3">
      <path id="path3" d="M120.48,62.558a18.768,18.768,0,0,0-11.621,30.6c9.887,11.881,29.188,7.263,32.748-7.836,2.5-10.6-5.057-21.624-15.592-22.754-1.108-.119-2.231-.262-2.5-.318a17.453,17.453,0,0,0-3.04.306M99.255,117.84c-1.062,41.546-.022,61.146,3.773,71.12,3.271,8.6,9,14.265,17.292,17.112,1.144.393,2.368.836,2.72.984,4.383,1.852,18.163,3.354,33.6,3.664,9.636.193,50.213-.339,52.375-.688,1.619-.26,1.995-.111-4.375-1.74-2.112-.541-4.128-1.107-4.48-1.258s-2.656-.774-5.12-1.384c-13.622-3.37-25.585-6.667-29.76-8.2-21.08-7.741-28.3-15.32-30.913-32.427-.439-2.885-.53-2.746,2.433-3.7,1.232-.4,2.528-.847,2.88-1s2.512-.928,4.8-1.713c6.071-2.085,9.832-3.413,10.56-3.729.352-.153,1.576-.585,2.72-.96s2.368-.8,2.72-.95,1.432-.555,2.4-.907c4.185-1.52,13.512-5.158,16.24-6.335l2.24-.96c6.553-2.793,15.928-8.236,19.666-11.416,3.533-3.006,8.574-8.412,8.574-9.194,0-.124-4.5-.325-10-.447a314.41,314.41,0,0,1-34.96-2.442c-1.408-.186-3.64-.466-4.96-.622-2.706-.321-7.274-1.069-11.68-1.913l-3.52-.67c-1.056-.2-2.5-.486-3.2-.636s-1.712-.365-2.24-.477a203.892,203.892,0,0,1-21.44-5.912c-.352-.141-1.5-.573-2.56-.959s-2.208-.821-2.56-.966-1.288-.527-2.08-.849a73.375,73.375,0,0,1-8.831-4.606,7.069,7.069,0,0,0-1.646-.939c-.155,0-.456,6.8-.668,15.12" transform="translate(1233 392)" fill="#820404" fill-rule="evenodd"/>
    </g>
    <g id="Group_4" data-name="Group 4">
      <g id="Group_1" data-name="Group 1" transform="translate(906 -131)">
        <path id="path2" d="M197.815,149.606a4.159,4.159,0,0,0-.375,1.293,2.7,2.7,0,0,1-.292,1.025c-.161.306-1.172,3.292-2.247,6.636s-2.066,6.258-2.2,6.475c-.186.294-2.526.416-9.194.48l-8.944.085,2.24,1.594c2.434,1.733,4.836,3.5,5.607,4.121.268.217,1.2.878,2.08,1.47,4.215,2.845,4.971,3.919,4.014,5.7-.529.987-4.561,13.815-4.448,14.154.06.181.779-.141,1.6-.715,2.455-1.72,6.795-4.846,7.309-5.265a40.953,40.953,0,0,1,5.273-3.615c.3,0,1.839,1.077,8.6,6.006,5.812,4.24,6.128,4.379,5.4,2.375-.172-.475-.924-2.808-1.67-5.184s-1.465-4.608-1.6-4.96a40.691,40.691,0,0,1-1.547-5.1c.3-.232,8.413-6.156,9.562-6.98.43-.309,1.711-1.245,2.847-2.08l2.065-1.52-8.93-.085c-6.492-.062-8.994-.19-9.166-.467-.129-.21-.764-2.044-1.41-4.075s-1.289-3.981-1.428-4.333-.726-2.152-1.305-4c-1.236-3.943-1.342-4.119-1.837-3.034" transform="translate(329 527)" fill="#f60" fill-rule="evenodd"/>
      </g>
    </g>
  </g>
</svg>
