<?xml version="1.0" standalone="no"?>
<!DOCTYPE svg PUBLIC "-//W3C//DTD SVG 20010904//EN"
 "http://www.w3.org/TR/2001/REC-SVG-20010904/DTD/svg10.dtd">
<svg version="1.0" xmlns="http://www.w3.org/2000/svg"
 width="540.000000pt" height="522.000000pt" viewBox="0 0 540.000000 522.000000"
 preserveAspectRatio="xMidYMid meet">

<g transform="translate(0.000000,522.000000) scale(0.100000,-0.100000)"
fill="#61ba6d" stroke="none">
<path d="M2529 4275 c-64 -7 -132 -16 -150 -20 -66 -13 -242 -66 -283 -84 -22
-10 -52 -22 -66 -26 -82 -25 -301 -156 -415 -248 -72 -60 -215 -206 -270 -277
-230 -299 -355 -656 -355 -1016 l0 -114 48 0 c53 0 159 21 242 47 l55 18 -75
12 c-41 6 -77 13 -80 14 -3 0 58 9 135 18 112 14 158 25 231 54 50 20 106 40
123 43 17 4 31 9 31 13 0 4 -46 21 -102 39 -57 18 -170 55 -253 82 l-150 50
80 -5 c44 -3 159 -12 255 -20 96 -7 216 -17 265 -20 l90 -7 -245 137 c-135 76
-272 153 -305 171 -33 19 -55 34 -50 34 6 0 156 -43 335 -94 179 -52 326 -93
327 -92 1 1 -69 61 -155 134 -86 72 -170 143 -187 158 -16 14 -62 53 -102 87
-40 33 -71 63 -69 65 3 2 136 -64 297 -147 161 -83 295 -148 297 -146 3 2 -40
59 -94 127 -55 68 -104 130 -111 138 -34 43 -151 191 -182 229 -20 25 -29 41
-21 36 15 -9 239 -185 433 -339 103 -83 122 -93 94 -51 -8 11 -69 128 -137
260 -67 132 -131 255 -142 273 -40 66 -10 50 57 -31 156 -188 369 -436 372
-434 1 2 -8 39 -21 83 -13 43 -40 138 -61 209 -20 72 -50 175 -66 230 -17 55
-32 108 -35 118 -12 41 14 12 45 -50 19 -38 37 -70 40 -73 3 -3 11 -14 16 -25
36 -67 239 -434 241 -432 0 1 -5 67 -11 147 -37 417 -46 542 -42 547 3 2 10
-11 15 -29 8 -24 171 -543 197 -623 7 -22 15 33 45 315 18 162 35 313 39 335
l8 40 7 -55 c16 -132 55 -471 61 -535 11 -119 15 -118 55 11 71 227 162 509
170 529 l9 20 0 -20 c0 -11 -12 -168 -28 -350 -16 -181 -28 -331 -27 -332 2
-2 128 221 199 352 27 50 61 110 74 135 14 25 37 65 50 90 22 40 25 42 20 15
-3 -16 -46 -169 -95 -340 -50 -170 -90 -311 -88 -312 1 -2 45 47 97 109 52 62
121 144 154 183 33 39 89 106 125 148 69 82 87 88 47 16 -13 -24 -73 -138
-132 -254 -59 -115 -119 -229 -132 -252 -14 -24 -22 -43 -18 -43 6 0 129 95
285 220 19 16 64 51 100 79 36 28 82 65 103 82 21 17 41 28 45 25 3 -4 2 -10
-4 -14 -18 -12 -413 -512 -405 -512 8 0 78 35 409 207 101 52 185 93 188 91 2
-3 -113 -103 -256 -223 -143 -120 -259 -220 -257 -221 1 -1 72 18 157 43 85
24 225 64 310 88 85 24 164 47 174 51 34 13 9 -12 -32 -34 -55 -28 -328 -180
-447 -247 l-100 -56 80 5 c44 3 196 15 338 27 143 11 261 19 263 17 2 -3 -22
-12 -54 -22 -188 -58 -438 -140 -445 -146 -5 -4 6 -10 24 -14 17 -3 73 -22
123 -43 75 -30 117 -39 236 -53 145 -17 149 -20 40 -37 l-55 -9 65 -21 c79
-27 168 -43 232 -43 l48 0 0 113 c-1 567 -303 1102 -802 1420 -54 34 -215 114
-303 150 -65 27 -217 68 -257 70 -21 1 -38 4 -38 8 0 4 -26 11 -57 14 -32 4
-69 8 -82 10 -74 12 -251 12 -352 0z m224 -12 c-7 -2 -19 -2 -25 0 -7 3 -2 5
12 5 14 0 19 -2 13 -5z m-353 -38 c0 -16 -9 -19 -36 -8 -16 6 -16 7 2 14 29
11 34 10 34 -6z m-105 -15 c-3 -5 -11 -10 -16 -10 -6 0 -7 5 -4 10 3 6 11 10
16 10 6 0 7 -4 4 -10z m760 -20 c3 -5 1 -10 -4 -10 -6 0 -11 5 -11 10 0 6 2
10 4 10 3 0 8 -4 11 -10z m145 0 c0 -5 -4 -10 -9 -10 -6 0 -13 5 -16 10 -3 6
1 10 9 10 9 0 16 -4 16 -10z m-995 -7 c-11 -3 -26 -10 -32 -15 -8 -6 -13 -7
-13 -1 0 16 12 23 39 22 21 -1 22 -2 6 -6z m262 -175 c-3 -8 -6 -5 -6 6 -1 11
2 17 5 13 3 -3 4 -12 1 -19z"/>
<path d="M1815 2615 c-90 -17 -152 -39 -300 -107 -198 -91 -284 -113 -450
-111 -88 0 -141 6 -199 22 -44 11 -81 21 -82 21 -6 0 -154 -301 -154 -311 0
-22 225 -89 296 -89 19 0 34 -5 34 -11 0 -25 -260 9 -342 45 -14 6 -25 -8 -58
-74 l-41 -81 37 -15 c104 -43 186 -57 344 -58 139 0 167 3 265 28 166 43 310
113 465 226 146 107 266 153 400 154 47 1 103 -5 126 -11 86 -27 194 -121 306
-268 l54 -70 187 -3 186 -2 41 52 c94 120 117 145 173 195 32 29 84 65 116 80
49 24 68 27 146 27 152 0 252 -39 432 -167 156 -110 298 -176 468 -219 75 -19
115 -22 245 -22 157 1 242 15 344 58 l37 15 -40 79 -40 79 -78 -22 c-84 -25
-283 -44 -283 -28 0 5 35 14 78 20 95 14 241 60 248 77 4 12 -140 316 -149
316 -2 0 -39 -10 -83 -21 -60 -16 -109 -22 -204 -22 -157 -1 -263 26 -451 113
-207 96 -275 113 -454 113 -136 1 -158 -2 -238 -26 -157 -48 -286 -127 -414
-255 l-79 -78 -76 77 c-224 227 -524 329 -813 274z"/>
<path d="M1355 1727 c-48 -22 -69 -62 -69 -132 1 -78 16 -106 109 -197 74 -74
75 -76 75 -126 0 -46 -3 -52 -24 -58 -45 -11 -60 -2 -71 44 -9 43 -9 43 -50
40 l-40 -3 3 -49 c1 -28 9 -61 18 -74 31 -48 122 -66 189 -38 63 27 86 92 65
191 -11 51 -19 64 -78 123 -84 83 -102 109 -102 148 0 39 21 58 55 50 18 -5
27 -15 32 -36 5 -27 9 -30 45 -30 25 0 41 5 44 15 10 24 -19 97 -46 117 -34
25 -116 32 -155 15z"/>
<path d="M3644 1733 c-12 -2 -34 -17 -49 -34 -23 -23 -30 -40 -33 -88 -6 -80
18 -127 107 -214 52 -50 72 -78 77 -103 9 -48 -9 -84 -40 -84 -45 0 -56 10
-56 51 l0 39 -45 0 -45 0 0 -45 c0 -86 51 -135 139 -135 98 0 141 46 141 150
0 79 -20 117 -109 205 -75 73 -93 113 -72 154 22 40 81 21 81 -26 0 -21 5 -23
46 -23 l47 0 -6 45 c-9 86 -81 128 -183 108z"/>
<path d="M1610 1430 l0 -300 45 0 45 0 0 125 c0 124 0 125 23 125 20 0 25 -8
35 -52 7 -29 22 -86 34 -125 l21 -73 48 0 c27 0 49 3 49 7 0 4 -18 65 -40 135
l-40 128 20 20 c31 31 40 63 40 141 0 128 -47 168 -197 169 l-83 0 0 -300z
m174 188 c9 -12 16 -42 16 -65 0 -52 -26 -83 -70 -83 l-30 0 0 85 0 85 34 0
c25 0 39 -7 50 -22z"/>
<path d="M1977 1724 c-4 -4 -7 -139 -7 -301 l0 -293 51 0 51 0 -6 298 -6 297
-38 3 c-21 2 -41 0 -45 -4z"/>
<path d="M2236 1722 c-3 -5 -19 -89 -35 -188 -17 -98 -40 -228 -51 -288 -11
-61 -20 -111 -20 -113 0 -2 23 -3 50 -3 48 0 50 1 50 28 0 15 3 44 6 65 7 37
7 37 55 37 52 0 48 6 65 -92 6 -38 6 -38 55 -38 34 0 47 4 44 13 -2 6 -23 118
-45 247 -22 129 -45 259 -51 288 l-10 52 -54 0 c-30 0 -56 -4 -59 -8z m88
-339 c5 -32 4 -33 -30 -33 -39 0 -41 7 -24 106 24 139 22 136 36 44 7 -47 15
-100 18 -117z"/>
<path d="M2581 1678 c-6 -29 -25 -134 -42 -233 -17 -99 -36 -210 -43 -247
l-13 -68 48 0 48 0 6 48 c11 82 11 82 64 82 l48 0 9 -62 9 -63 48 -3 c26 -2
47 -2 47 0 0 2 -16 93 -35 203 -19 110 -42 244 -51 298 l-17 97 -58 0 -58 0
-10 -52z m83 -201 c22 -132 22 -127 -20 -127 -32 0 -36 2 -31 23 3 12 11 64
18 115 6 51 13 91 15 90 1 -2 10 -47 18 -101z"/>
<path d="M2866 1721 c-3 -4 -5 -139 -5 -300 l0 -291 50 0 49 0 0 98 c0 78 4
103 19 125 l19 29 42 -126 42 -126 50 0 c43 0 50 2 45 18 -3 9 -28 82 -57 162
-28 80 -54 152 -57 161 -2 9 21 66 51 127 31 62 56 116 56 122 0 5 -20 10 -44
10 l-43 0 -59 -115 -59 -115 -3 115 -3 115 -44 0 c-24 0 -46 -4 -49 -9z"/>
<path d="M3306 1722 c-2 -4 -23 -113 -45 -242 -22 -129 -45 -259 -51 -289 -5
-29 -10 -55 -10 -57 0 -2 23 -4 50 -4 48 0 50 1 50 28 0 15 3 44 6 65 7 37 7
37 55 37 48 0 48 0 54 -37 16 -99 12 -93 61 -93 33 0 44 4 44 16 0 16 -73 441
-91 532 l-10 52 -54 0 c-30 0 -56 -4 -59 -8z m87 -364 c-2 -5 -17 -8 -34 -8
-33 0 -34 3 -19 100 22 144 22 144 40 25 9 -60 15 -113 13 -117z"/>
<path d="M3965 1718 c-3 -7 -23 -116 -45 -243 -22 -126 -44 -254 -50 -284 -5
-29 -10 -55 -10 -57 0 -2 23 -4 50 -4 48 0 50 1 50 28 0 15 3 44 6 65 7 37 7
37 55 37 53 0 53 0 64 -82 l6 -48 49 0 c35 0 48 4 45 13 -2 6 -23 118 -45 247
-22 129 -45 259 -51 288 l-10 52 -55 0 c-35 0 -56 -5 -59 -12z m90 -335 c6
-32 5 -33 -30 -33 -41 0 -41 -1 -24 117 15 113 21 117 35 28 7 -44 16 -95 19
-112z"/>
</g>
</svg>
